<svg id="Layer_2" data-name="Layer 2" xmlns="http://www.w3.org/2000/svg" viewBox="0 0 568 281"><defs><style>.cls-1{fill:#641e32;}.cls-2{fill:none;stroke:#000;stroke-linecap:round;stroke-linejoin:round;}.cls-3{fill:#d14343;}.cls-4{fill:#1d503e;}.cls-5{fill:#6ae2b4;}.cls-6{fill:#e3b644;}.cls-7{fill:#f4d919;}.cls-8{fill:#0e3167;}.cls-9{fill:#3e82ad;}</style></defs><title>JaKe</title><path class="cls-1" d="M208,122s-10,15-21,22c-.33.09-.66.19-1,.27-21,5.61-53,1.73-53,1.73-2,28,1,35,4,42s2,31,2,37-10,30-18,37c-6.4,5.6-11.52,6.72-28.65,9.5h0C88,272.21,83,273,77,274c-30,5-34-7-37-11s-4-12-7-32c5-15,18-25,18-25s11-2,17,0c1,30,12.5,29.5,12.5,29.5,6,0,12-17,11-29-.32-3.81-1.24-11-2.38-19.25-2.46-17.7-5.94-40-6.62-42.75-1-4-25-9-33-9s-38,1-41,0-4-18.56-4-26.7v-.3c0-8,21-28,21-28S26,80,59,82c58,1,86-9,102-9s44,5,44,5Z"/><path d="M206.7,121.25a94.28,94.28,0,0,1-7.21,9.33,83,83,0,0,1-7.39,7.62,51.65,51.65,0,0,1-4.24,3.43,6.61,6.61,0,0,1-2.09,1.16c-.88.23-1.76.45-2.64.65-13.14,2.95-27,2.76-40.42,1.91-3.24-.21-6.49-.45-9.71-.84-.84-.1-1.45.77-1.5,1.5-.78,11.05-1.58,22.76,1,33.66a48.85,48.85,0,0,0,2.7,7.91,20.09,20.09,0,0,1,1.31,4.24,57.26,57.26,0,0,1,.8,6.92c.37,5.48.38,11,.33,16.47,0,2.24-.06,4.48-.1,6.72a38.6,38.6,0,0,1-.11,4.09c-.56,4-2.37,8.47-4,12.36a101.83,101.83,0,0,1-7.72,15.24,30.69,30.69,0,0,1-8.61,9.53,33.09,33.09,0,0,1-11.65,4.48C99,269.07,92.31,270,85.72,271.07c-7.42,1.2-14.85,2.73-22.4,2.63-7.33-.08-14.8-1.77-19.43-7.64l-.07-.09-.25-.35c-.16-.21-.32-.44-.47-.66-.27-.4-.53-.8-.79-1.2-.47-.72-1-1.41-1.44-2.13-1.64-2.56-2.29-5.87-2.92-9-1.24-6.18-2.08-12.44-3-18.67a12,12,0,0,1-.39-2.87,10.23,10.23,0,0,1,.92-2.41,45.66,45.66,0,0,1,2.25-4.61A55,55,0,0,1,43,216.29a61,61,0,0,1,8.46-8.7c.16-.14.51-.31.62-.5-.16.26-.93.28-.43.33a3.8,3.8,0,0,0,.81-.13,59,59,0,0,1,6.91-.64,24.27,24.27,0,0,1,8.27.81L66.5,206a76.07,76.07,0,0,0,2.11,16.53,28.66,28.66,0,0,0,3.93,9.18c1.75,2.52,4.39,5,7.61,5.27a6.42,6.42,0,0,0,4.91-2.24c3.11-3.17,4.82-7.78,6-12A46.23,46.23,0,0,0,93,206.84c-.39-5.39-1.21-10.77-1.93-16.12q-2.41-17.83-5.26-35.61c-.53-3.36-1-6.74-1.7-10.09-.47-2.38-2.25-3.51-4.36-4.48a63.17,63.17,0,0,0-11.34-3.62,126.59,126.59,0,0,0-12.69-2.38c-6.57-.88-13.21-.43-19.82-.31-7.91.16-15.85.43-23.76.13-.56,0-1.12,0-1.68-.08l-.72-.06-.28,0c-.4,0,.24.05,0,0a1.69,1.69,0,0,0-.38-.07c-.37.08.16-.11.09.09a4.14,4.14,0,0,1-.55-.87,22.57,22.57,0,0,1-1.26-5.2c-.36-2.19-.59-4.41-.78-6.63a117.39,117.39,0,0,1-.57-13c.06-2.4,2-5.33,3.42-7.51,4.17-6.18,9.39-11.69,14.63-17,.69-.69,1.37-1.37,2.07-2s.37-.25-.22,0c.23-.08-.52,0-.22,0s.41,0,.61,0c4-.09,8.1.21,12.12.4,5.29.26,10.57.56,15.86.87,6.87.4,13.74.4,20.63.28q17.41-.3,34.78-2.1c8.54-.9,17-2.1,25.51-3.48,5.94-1,12.12-2.12,17.93-2.84a92.58,92.58,0,0,1,19.55,0c9.12.8,18.21,2.08,27.26,3.56,1.56.25,3.12.51,4.67.79L203.5,78l1,14.89,1.61,23.62.37,5.49c.13,1.92,3.13,1.93,3,0l-1-14.89L206.87,83.5,206.5,78a1.53,1.53,0,0,0-1.1-1.45c-5.68-1-11.4-1.87-17.12-2.65-9.26-1.26-18.73-2.58-28.1-2.39A107.89,107.89,0,0,0,145,73.29c-7,1.14-14.09,2.36-21.16,3.37q-14.49,2.07-29.12,3a314.31,314.31,0,0,1-39.06.61c-8.43-.5-16.86-1-25.3-1.29-1.29,0-2.58-.08-3.87-.06a5.06,5.06,0,0,0-1.35.1c-.8.23-1.48,1.16-2,1.71Q19.87,84,16.8,87.27c-2.8,3-5.5,6.16-8,9.45a34.19,34.19,0,0,0-5.26,8.9,11.2,11.2,0,0,0-.55,3.9q0,3.18.2,6.36a109.33,109.33,0,0,0,1.39,13.87C5,132,5.53,136.22,8.21,137c2.17.62,4.78.41,7,.44,8.2.11,16.4-.11,24.6-.27,3.14-.06,6.28-.15,9.42-.15a58.34,58.34,0,0,1,9.94,1.07,117.41,117.41,0,0,1,13,2.92,54,54,0,0,1,5.3,1.78,19,19,0,0,1,1.78.81c.28.15.55.3.82.47.12.07.7.5.53.35a3.51,3.51,0,0,1,.44.42c.25.28-.18-.26,0,0s.06.3,0,0c.06.33.15.66.22,1,.26,1.31.48,2.63.7,4,.8,4.74,1.53,9.48,2.26,14.22,1.87,12.25,3.72,24.52,5.19,36.83a54.49,54.49,0,0,1,.27,14.43,41.64,41.64,0,0,1-4.49,14.24,11.22,11.22,0,0,1-3.22,4,2.7,2.7,0,0,1-1.57.54l-.27,0c.55,0,.09,0-.17-.05l-.65-.19-.33-.12c.5.19,0,0-.16-.08a9.9,9.9,0,0,1-3.54-3.15,26,26,0,0,1-3.76-8.66,71.89,71.89,0,0,1-2-15.73,1.54,1.54,0,0,0-1.1-1.45c-5.22-1.66-11.22-1-16.54-.2a4.08,4.08,0,0,0-2.26.86c-1.09.88-2.13,1.83-3.14,2.8a63.79,63.79,0,0,0-10.59,13.24,47.91,47.91,0,0,0-2.45,4.65c-.35.76-.67,1.53-1,2.31A9.46,9.46,0,0,0,31.5,231a17.6,17.6,0,0,0,.45,3c.16,1.12.33,2.24.5,3.36l.84,5.61a122.46,122.46,0,0,0,2.84,15,24.58,24.58,0,0,0,3.3,6.84,28.84,28.84,0,0,0,4.32,5.52,22.31,22.31,0,0,0,9.25,5c5.52,1.56,11.43,1.56,17.09,1,7.74-.7,15.47-2.24,23.13-3.53,6.12-1,12.41-1.82,18.34-3.76a29.39,29.39,0,0,0,10.73-6.26c3.76-3.42,6.46-8.15,8.84-12.58a115.7,115.7,0,0,0,7.06-15.9,33,33,0,0,0,2.32-10.76c.06-4.75.18-9.49.14-14.24a121.12,121.12,0,0,0-.94-16.49,22.93,22.93,0,0,0-1.44-5.7c-.47-1.11-.87-2-1.37-3.36-3.07-8.24-3.21-17.24-3-25.92.1-4,.32-7.94.6-11.9l-1.5,1.5a198,198,0,0,0,27.21,1.28,123.2,123.2,0,0,0,22.19-2.13,31.65,31.65,0,0,0,5-1.2,19.89,19.89,0,0,0,4.58-3.23,73.29,73.29,0,0,0,8-7.72,102.06,102.06,0,0,0,9.28-11.74C210.37,121.16,207.77,119.65,206.7,121.25Z"/><path class="cls-1" d="M4.5,108v-.3c0-8,21-28,21-28s.5-.5,33.5,1.5c58,1,86-9,102-9s44,5,44,5l.07,1.1c-2.8,4-18.57,27.1-18.57,34.39v3c-5-4-31-5-97,0-55.91,4.24-78.81-4.45-84.5-7.2"/><path d="M6,108a7.52,7.52,0,0,1,.72-3.09,27.64,27.64,0,0,1,2.42-4.31,84.61,84.61,0,0,1,7.19-9.15q3.47-3.93,7.15-7.64,1.14-1.17,2.31-2.31c.19-.18.39-.36.57-.55s.35-.17-.1,0-1,.17-.22.16q1.47,0,2.94,0c7,.17,14,.59,21,1,6.66.38,13.26.63,19.93.59q9.45-.06,18.9-.53,15.21-.78,30.31-2.74c7.52-1,15-2.19,22.47-3.43,5.29-.89,10.39-1.81,15.66-2.21,7.9-.59,16,.4,23.79,1.33q11.2,1.32,22.35,3.26l1.19.21-1.1-1.45a3.66,3.66,0,0,0,.06.88c.13.41.44-.63.05-.3a4.92,4.92,0,0,0-.7,1c-.66,1-1.31,1.91-1.95,2.87q-2.75,4.11-5.36,8.31c-3.61,5.8-7.38,11.83-9.66,18.31a21,21,0,0,0-.94,7.39l2.56-1.06a12.81,12.81,0,0,0-5.35-2.2,66.59,66.59,0,0,0-9.86-1.23c-12-.8-24.06-.37-36,.12-9.38.39-18.74.93-28.1,1.54-11.21.74-22.41,1.75-33.63,2.2-15.77.62-31.77.44-47.39-2A114.8,114.8,0,0,1,14,110.17c-1.48-.43-3-.89-4.39-1.41-.57-.2-1.13-.41-1.69-.63l-.73-.3c-.22-.09.33.14,0,0l-.34-.15c-.36-.16-.71-.32-1-.49C4,106.36,2.5,109,4.24,109.79a72.64,72.64,0,0,0,17.85,5.36c14.19,2.73,28.78,3.35,43.21,3.16,11-.15,21.94-1,32.91-1.76,10-.72,20-1.36,30-1.86,13.31-.66,26.7-1.24,40-.71,2.08.08,4.17.2,6.25.37.88.08,1.75.16,2.62.27l1.13.14.23,0,.6.09a32.52,32.52,0,0,1,3.66.75c.47.13.93.28,1.39.45l.3.11c.3.12-.34-.16,0,0,.17.08.34.15.51.24s1,.69.56.32a1.52,1.52,0,0,0,2.56-1.06,17.08,17.08,0,0,1,.63-6,51.89,51.89,0,0,1,3.76-8.24c3.31-6.19,7.09-12.13,11-18l2.17-3.21c.23-.35.5-.69.72-1.05a3.15,3.15,0,0,0,.24-2,1.53,1.53,0,0,0-1.1-1.45c-5.68-1-11.4-1.87-17.12-2.65-9.22-1.26-18.64-2.55-28-2.39a107,107,0,0,0-15.13,1.73c-7,1.13-13.94,2.34-20.94,3.35q-14.52,2.08-29.16,3.07-9,.6-18,.8c-6.83.15-13.71.3-20.53-.11-8.64-.51-17.29-1-25.95-1.33-1.35,0-2.71-.09-4.06-.07a5.6,5.6,0,0,0-1.42.09,5.09,5.09,0,0,0-1.83,1.5q-3.15,3.11-6.16,6.34c-2.74,3-5.39,6-7.85,9.19a38.43,38.43,0,0,0-5.55,9A10.07,10.07,0,0,0,3,108a1.5,1.5,0,0,0,3,0Z"/><path class="cls-2" d="M205.5,78.5s-19,27-19,35v3c-5-4-31-5-97,0-55.91,4.24-78.81-4.45-84.5-7.2V109c0-8,21-28,21-28s.5-.5,33.5,1.5c58,1,86-9,102-9S205.5,78.5,205.5,78.5Z"/><path class="cls-1" d="M208.5,122.5s-10,15-21,22c-.33.09-.66.19-1,.27V113.5c0-8,19-35,19-35Z"/><path d="M207.2,121.74a93.11,93.11,0,0,1-6.34,8.32,87.45,87.45,0,0,1-6.77,7.24c-1.24,1.19-2.53,2.34-3.87,3.41s-2.59,2.23-4.12,2.61l1.9,1.45v-28c0-1.11,0-2.22,0-3.32a8.86,8.86,0,0,1,.48-2.54,30.68,30.68,0,0,1,1.26-3.35,131.1,131.1,0,0,1,9.69-17.27c2.37-3.74,4.81-7.46,7.37-11.08L204,78.5l1,14.89L206.63,117l.37,5.49c.13,1.92,3.13,1.93,3,0l-1-14.89L207.37,84,207,78.5a1.52,1.52,0,0,0-2.8-.76c-6,8.5-11.85,17.37-16.32,26.76a30.34,30.34,0,0,0-2.69,7.26,19.41,19.41,0,0,0-.19,3.49v29.52a1.52,1.52,0,0,0,1.9,1.45,13,13,0,0,0,4.58-2.71q2.18-1.69,4.2-3.58a88.25,88.25,0,0,0,7.09-7.5,102.6,102.6,0,0,0,7-9.17C210.87,121.65,208.27,120.14,207.2,121.74Z"/><path class="cls-2" d="M5,109.3a16.51,16.51,0,0,1-1.5-.8"/><path class="cls-3" d="M186.5,116.5v28.27c-21,5.61-53,1.73-53,1.73s-17,0-22-2c0,16,5,32,7,59s.63,56-25.65,68.5h0c-4.29.69-9.32,1.49-15.32,2.49-30,5-34-7-37-11s-4-12-7-32c0,0,18-5,23,0,1,9,7,24,18,23s14,3,18-19S90.74,192,89.62,187.75c-2.46-17.7-5.94-40-6.62-42.75-1-4-25-9-33-9s-38,1-41,0-4-18.56-4-26.7c5.69,2.75,28.59,11.44,84.5,7.2C155.5,111.5,181.5,112.5,186.5,116.5Z"/><path d="M185,116.5v28.27l1.1-1.45c-12.87,3.4-26.65,3.37-39.86,2.69q-5.85-.28-11.68-.89c-2.09-.22-4.2-.15-6.3-.21-3-.09-6-.24-8.93-.51a27.52,27.52,0,0,1-7.43-1.35,1.52,1.52,0,0,0-1.9,1.45,144.78,144.78,0,0,0,2.25,22.26c1.43,9.11,2.93,18.21,3.9,27.39a215.52,215.52,0,0,1,1.44,27.71A81.24,81.24,0,0,1,114,245.4a42.49,42.49,0,0,1-12.34,19.13,39.59,39.59,0,0,1-4.87,3.58c-1.69,1.06-3.5,2.31-5.47,2.62-5.06.82-10.11,1.67-15.18,2.47-7.56,1.2-15.9,1.87-23.28-.66a19.94,19.94,0,0,1-5.49-2.92,18.5,18.5,0,0,1-1.95-1.81c-.27-.3-.53-.6-.79-.91a7.4,7.4,0,0,1-.53-.69c-.73-1-1.37-2.08-2.09-3.11a15.6,15.6,0,0,1-2.1-4c-2.15-6.34-2.8-13.28-3.79-19.86q-.61-4-1.21-8.1L33.9,233a64.74,64.74,0,0,1,9-1.79,37.88,37.88,0,0,1,7.37-.32c1.77.13,3.88.44,5.22,1.72L55,231.5a40.35,40.35,0,0,0,4,13.36c2,4.08,5.07,8.16,9.36,10.07,3.62,1.6,7.45.93,11.28.84,2.38-.06,5-.11,7.06-1.45,2.64-1.72,3.89-4.86,4.81-7.73A88,88,0,0,0,95,227.84a116.65,116.65,0,0,0-2.87-36.1c-.32-1.37-.7-2.72-1-4.09-.66-2.84-.86-5.85-1.28-8.74Q88.51,169.45,87,160c-.68-4.39-1.36-8.79-2.15-13.17a9.08,9.08,0,0,0-.72-2.91,6.62,6.62,0,0,0-2.85-2.38,50.53,50.53,0,0,0-11.5-3.92A127.13,127.13,0,0,0,56.25,135c-7.17-1-14.48-.41-21.69-.27-4.63.09-9.26.16-13.88.18-3.34,0-6.71.07-10-.2l-.71-.07-.16,0c-.13,0-.25-.08-.38-.1.07,0,.28.09.26.14s-.14-.13-.14-.14a14.57,14.57,0,0,1-1.39-4.33A98.28,98.28,0,0,1,6.66,115.6c-.09-2.1-.15-4.2-.16-6.3l-2.26,1.3A72.64,72.64,0,0,0,22.09,116c14.19,2.73,28.78,3.35,43.21,3.16,11-.15,21.94-1,32.91-1.76,10-.72,20-1.36,30-1.86,13.31-.66,26.7-1.24,40-.71,2.08.08,4.17.2,6.25.37.88.08,1.75.16,2.62.27l1.13.14.23,0,.6.09a32.52,32.52,0,0,1,3.66.75c.47.13.93.28,1.39.45l.3.11c.3.12-.34-.16,0,0l.51.24c.23.12,1,.69.56.32,1.5,1.19,3.64-.92,2.12-2.12a12.81,12.81,0,0,0-5.35-2.2,66.59,66.59,0,0,0-9.86-1.23c-12-.8-24.06-.37-36,.12-9.38.39-18.74.93-28.1,1.54-11.21.74-22.41,1.75-33.63,2.2-15.77.62-31.77.44-47.39-2A114.8,114.8,0,0,1,14,111c-1.48-.43-3-.89-4.39-1.41-.57-.2-1.13-.41-1.69-.63l-.73-.3c-.22-.09.33.14,0,0l-.34-.15c-.36-.16-.71-.32-1-.49a1.52,1.52,0,0,0-2.26,1.3A150.1,150.1,0,0,0,4.36,125a58.51,58.51,0,0,0,1.2,7.44,8.84,8.84,0,0,0,2,4.36,5,5,0,0,0,3.17.93c1.56.12,3.12.15,4.67.17,4.77.07,9.54,0,14.31-.08s9.67-.18,14.51-.27a78.57,78.57,0,0,1,10.18.23A111.49,111.49,0,0,1,69,140.52c3.9,1,8.32,1.92,11.73,4.16a2.26,2.26,0,0,1,.52.39,3,3,0,0,1,.25.25c.17.2-.12-.21,0,.07s-.06-.23,0,0a1.6,1.6,0,0,1,0,.21c0,.23.1.47.15.7.32,1.63.59,3.28.86,4.93,1,5.89,1.89,11.8,2.78,17.7q.81,5.38,1.59,10.77a81.47,81.47,0,0,0,1.33,9A128.39,128.39,0,0,1,91,201.55C93.24,215.93,93,231,88.83,245a19.55,19.55,0,0,1-2.13,5.08,5.38,5.38,0,0,1-2.27,2,8.83,8.83,0,0,1-3.19.58c-1.54.08-3.08.07-4.62.15-2.24.1-4.35.38-6.51-.43a13.36,13.36,0,0,1-5.48-4.22c-3.26-3.94-5.17-9.08-6.19-14-.21-1-.16-2.76-.76-3.58A5.81,5.81,0,0,0,55.36,229a17,17,0,0,0-6.46-1.19,56.09,56.09,0,0,0-13.4,1.68c-.81.18-1.61.37-2.4.59a1.55,1.55,0,0,0-1.05,1.85c1.26,8.36,2.15,16.92,4.2,25.14a23.93,23.93,0,0,0,2.19,6c.62,1.11,1.42,2.15,2.11,3.21a22,22,0,0,0,7.89,7.57c6,3.21,13.17,3.63,19.82,3.23a157.87,157.87,0,0,0,16-2.19l7.49-1.21a16.33,16.33,0,0,0,5.79-2.52,43,43,0,0,0,16.31-17.57c7.54-15,7.33-32.74,6.17-49.06-.73-10.41-2.1-20.74-3.73-31.05-1.24-7.83-2.66-15.66-3.16-23.58q-.18-2.7-.18-5.4L111.1,146a26.68,26.68,0,0,0,6.69,1.29c2.74.31,5.5.47,8.26.59,2.6.11,5.27-.05,7.86.22a220.26,220.26,0,0,0,29.5,1.16,106.15,106.15,0,0,0,23.49-3,1.54,1.54,0,0,0,1.1-1.45V116.5A1.5,1.5,0,0,0,185,116.5Z"/><path class="cls-4" d="M239.5,80.5s-3-23,6-29c9,15,8,37,25,67,7,12,5,25,14,34l30,94s-15.11,8.63-15.06,16.82"/><path d="M241,80.5a66.73,66.73,0,0,1-.48-7.74c0-4.8.25-9.78,1.88-14.34a11.13,11.13,0,0,1,3.86-5.62l-2.06-.54c4.18,7,6.08,15.13,8.14,22.95a205.63,205.63,0,0,0,10.17,30.7c1.34,3.07,2.8,6.09,4.35,9.06a99.91,99.91,0,0,1,4.61,8.9c2.13,5.25,3.09,10.85,4.68,16.27a39.11,39.11,0,0,0,3,7.6,23.85,23.85,0,0,0,2.25,3.46q.58.78,1.23,1.5c.21.24.78.86.44.21a10.35,10.35,0,0,1,.55,1.74l8.91,27.91,12.87,40.32,5,15.66c.84,2.64,1.53,5.42,2.55,8,0,.11.08.24.11.36l.69-1.7a54.44,54.44,0,0,0-8.06,5.76c-3.61,3.08-7.68,7.3-7.74,12.36a1.5,1.5,0,0,0,3,0c.05-4.35,4.22-8,7.29-10.6a49,49,0,0,1,7-4.92,1.53,1.53,0,0,0,.69-1.7l-6.3-19.73-12.72-39.85-9.89-31c-.32-1-.62-2-1-3,0-.14-.08-.3-.14-.44a11.61,11.61,0,0,0-2-2.42,23,23,0,0,1-2.25-3.46c-2.64-4.91-3.6-10.52-5-15.85a61.46,61.46,0,0,0-2.82-8.44c-1.33-3.08-3.12-5.94-4.67-8.91a165,165,0,0,1-12.39-32.59c-2.27-8.31-4.06-16.87-7.53-24.8a45.23,45.23,0,0,0-2.51-4.9,1.53,1.53,0,0,0-2.06-.54c-4.18,2.87-5.82,8.09-6.57,12.88a64.53,64.53,0,0,0-.46,14.3c.07,1,.16,2.09.29,3.12.24,1.89,3.25,1.91,3,0Z"/><path class="cls-5" d="M239.5,80.5c-4,5-24,130.38-43,163-.13.22-3.9,10.77-4,11l-5,12h25l22-46h28s2,21,3,27,10,23,10,23,14-3,23-5S249.5,97.5,239.5,80.5ZM235,197.68c-2.14-.08-3.54-.18-3.54-.18a108.38,108.38,0,0,1,12-37.13c1.21-2.27,2.54-4.57,4-6.87,0,0,2,26,3,22a58.63,58.63,0,0,0,2,9.87,35.1,35.1,0,0,0,3,7.13C258.6,197.93,242.44,197.94,235,197.68Z"/><path d="M235,196.18c-1.18-.05-2.36-.1-3.54-.18l1.5,1.5c0-.2,0-.41.07-.61l.07-.57s.1-.69.13-.93q.49-3.21,1.22-6.39a112.06,112.06,0,0,1,6.92-20.95,108.67,108.67,0,0,1,7.39-13.79l-2.8-.76q.36,4.75.83,9.51c.23,2.42.48,4.85.78,7.26a36.61,36.61,0,0,0,.85,5.32,2.24,2.24,0,0,0,1.37,1.76A1.74,1.74,0,0,0,252,175.9l-2.95-.4a56.16,56.16,0,0,0,1.4,7.73,44.75,44.75,0,0,0,2.06,6.38c.56,1.36,1.61,3,1.94,4.18-.08-.28-.05.22,0,.07s.06-.05,0,0a2.86,2.86,0,0,1-.43.42,8.08,8.08,0,0,1-2.51,1,37.77,37.77,0,0,1-7.64.89c-2.91.13-5.83.1-8.74,0-1.93-.07-1.93,2.93,0,3,5.58.19,11.47.34,16.94-1,1.87-.44,4.18-1.18,5.08-3a3.51,3.51,0,0,0-.07-3.05,59.3,59.3,0,0,1-2.6-5.88A50,50,0,0,1,252,175.5c-.16-1.59-2.48-2.15-2.95-.4,0,.18-.13.2,0,.07.44-.43,0-.08,0-.1l.19-.25h2c.19.1.28.61.18.22s-.26-1-.36-1.57c-.3-1.72-.49-3.35-.69-5.1-.45-4-.81-8-1.15-12-.08-.95-.16-1.9-.23-2.85a1.52,1.52,0,0,0-2.8-.76,110.65,110.65,0,0,0-15.75,41.43c-.18,1.11-.35,2.22-.45,3.33a1.52,1.52,0,0,0,1.5,1.5c1.18.08,2.36.13,3.54.18C237,199.26,237,196.26,235,196.18Z"/><path d="M238.44,79.44c-1.41,1.8-1.81,4.6-2.35,6.76-1.17,4.64-2.16,9.32-3.16,14-3.07,14.42-6,28.88-9.08,43.29-3.61,16.84-7.38,33.64-11.72,50.31-3.61,13.83-7.38,27.89-13,41-1,2.32-2.08,4.62-3.3,6.85a49.73,49.73,0,0,0-2.84,7.15c-1.83,5-3.87,10-5.94,14.94l-1,2.32c-.38.92.58,1.9,1.45,1.9h25a1.51,1.51,0,0,0,1.3-.74l7.44-15.57L233.06,227l2.74-5.72-1.3.74h28l-1.5-1.5c.65,6.82,1.34,13.64,2.13,20.45a48.84,48.84,0,0,0,1.68,9.77A104.21,104.21,0,0,0,270.07,263q2,4.16,4.13,8.23a1.55,1.55,0,0,0,1.7.69l12.56-2.72,9.8-2.14a2.85,2.85,0,0,0,2-1.19,6.3,6.3,0,0,0,.65-3.37,36.47,36.47,0,0,0-.54-5.31c-.85-5.39-2.18-10.72-3.55-16-1.93-7.43-4.06-14.82-6.27-22.17q-4-13.17-8.21-26.24-4.53-14-9.26-27.81-4.67-13.67-9.51-27.26-4.37-12.27-8.93-24.47c-2.45-6.52-4.95-13-7.57-19.5-1.7-4.17-3.39-8.38-5.43-12.4-.28-.55-.56-1.1-.87-1.63a1.51,1.51,0,0,0-2.6,1.52,40.11,40.11,0,0,1,2,3.87c.42.91.83,1.83,1.24,2.75.49,1.12,1,2.23,1.32,3.08,2.44,5.82,4.72,11.71,7,17.6,2.94,7.7,5.78,15.42,8.58,23.17q4.74,13.16,9.31,26.37,4.76,13.78,9.32,27.63,4.37,13.28,8.5,26.61c2.39,7.74,4.7,15.5,6.85,23.31,1.64,6,3.22,12,4.46,18,.23,1.12.45,2.25.64,3.38.09.51.17,1,.24,1.54,0,.14.1.7.08.51s.05.43.07.58a22.4,22.4,0,0,1,.15,4.09c0,.24.11-.4,0,0a1.73,1.73,0,0,0-.07.31c0,.09-.06.17-.08.26s.22-.38,0-.09.09-.07.1-.08,0-.17.32-.16a5.85,5.85,0,0,0-1.21.27q-9.17,2-18.33,4l-3.55.76,1.7.69a151,151,0,0,1-8.62-18.46,39.87,39.87,0,0,1-1.92-9.29c-.53-4.38-1-8.75-1.43-13.13-.29-2.79-.56-5.57-.83-8.36a1.53,1.53,0,0,0-1.5-1.5h-28a1.51,1.51,0,0,0-1.3.74l-7.44,15.57L213.94,260l-2.74,5.72,1.3-.74h-25l1.45,1.9c1.77-4.27,3.73-8.49,5.3-12.84,1.09-3,2.17-6,3.27-9.05l.24-.64c.07-.19.35-.64,0-.1.26-.44.51-.89.75-1.34.58-1.07,1.13-2.16,1.65-3.26,5.87-12.34,9.62-25.74,13.19-38.89,4.47-16.5,8.3-33.18,11.94-49.88,3.25-15,6.31-30,9.46-44.94,1.1-5.26,2.2-10.51,3.42-15.74a68.85,68.85,0,0,1,2.32-8.5c.12-.3-.2.38,0,0a.55.55,0,0,0,.09-.19c0-.12.45-.64,0,0C241.74,80.06,239.63,77.92,238.44,79.44Z"/><path class="cls-4" d="M243.5,160.37V186.5L235,197.68c-2.14-.08-3.54-.18-3.54-.18A108.38,108.38,0,0,1,243.5,160.37Z"/><path d="M242,160.37v25.37a2.58,2.58,0,0,0,0,.68c-.08-.28.5-.95-.06-.33-.88,1-1.63,2.16-2.43,3.21l-5.77,7.62,1.3-.74c-1.18-.05-2.36-.1-3.54-.18l1.5,1.5a4.07,4.07,0,0,1,.05-.49c0-.18,0-.36.07-.54s0-.33,0-.07l.06-.48q.39-2.59.92-5.17a113,113,0,0,1,5.06-17.26,108.25,108.25,0,0,1,5.63-12.36c.9-1.71-1.69-3.23-2.6-1.52a110.75,110.75,0,0,0-11.84,35.14c-.14.91-.28,1.83-.36,2.75a1.52,1.52,0,0,0,1.5,1.5c1.09.08,2.21.19,3.3.17a2,2,0,0,0,1.77-1q1.38-1.8,2.74-3.62l3.66-4.83a21.23,21.23,0,0,0,1.83-2.41A5.14,5.14,0,0,0,245,185V160.37A1.5,1.5,0,0,0,242,160.37Z"/><path class="cls-4" d="M235,197.68l8.46-11.18,9-1.13a35.1,35.1,0,0,0,3,7.13C258.6,197.93,242.44,197.94,235,197.68Z"/><path d="M236.34,198.44l8.46-11.18-1.3.74,9-1.13-1.45-1.1a46,46,0,0,0,1.72,4.68c.32.73.66,1.46,1,2.17.15.27.33.54.46.83s0,0,0,0a1.13,1.13,0,0,1,.08.24c.08.29,0-.26,0,.12s0-.06,0,0c0,.32.07-.15,0,.08s-.06.11,0,.1a2.76,2.76,0,0,1-.3.29c.2-.17,0,0-.11.07a6.49,6.49,0,0,1-.9.48,19.94,19.94,0,0,1-4.82,1c-2.15.25-4.31.35-6.47.4s-4.46,0-6.69-.07c-1.93-.07-1.93,2.93,0,3a85.73,85.73,0,0,0,13.5-.37c2.83-.35,8.7-1,8.85-4.89a6.48,6.48,0,0,0-1.12-3.15A34.41,34.41,0,0,1,254,185a1.53,1.53,0,0,0-1.45-1.1l-4.62.58-3.12.39a10.82,10.82,0,0,0-1.7.21c-.61.18-1,.78-1.32,1.26l-1.41,1.86-4,5.23-2.67,3.52a1.53,1.53,0,0,0,.54,2.06A1.55,1.55,0,0,0,236.34,198.44Z"/><path d="M245,160.37V156.5a1.5,1.5,0,0,0-3,0v3.87a1.5,1.5,0,0,0,3,0Z"/><path d="M259.5,183l-6.09.76-.87.11a1.63,1.63,0,0,0-1.06.44,1.52,1.52,0,0,0-.44,1.06c0,.73.67,1.6,1.5,1.5l6.09-.76.87-.11a1.63,1.63,0,0,0,1.06-.44,1.52,1.52,0,0,0,.44-1.06c0-.73-.67-1.6-1.5-1.5Z"/><path d="M233.74,196.92l-.06.08a1.26,1.26,0,0,0-.17.56,1.11,1.11,0,0,0,0,.6,1.26,1.26,0,0,0,.27.51,1.31,1.31,0,0,0,.42.39l.36.15a1.55,1.55,0,0,0,.8,0l.36-.15a1.74,1.74,0,0,0,.54-.54l.06-.08a1.26,1.26,0,0,0,.17-.56,1.11,1.11,0,0,0,0-.6,1.26,1.26,0,0,0-.27-.51,1.31,1.31,0,0,0-.42-.39l-.36-.15a1.55,1.55,0,0,0-.8,0l-.36.15a1.74,1.74,0,0,0-.54.54Z"/><path class="cls-6" d="M372.5,11.5s7,23,8,46,6,12,6,45v30s6-10,22-19c2,2,6-1,10,10,0,0,4,4,0,11s-7,12-7,12l-47,24-6-130Z"/><path d="M371.05,11.9A195.39,195.39,0,0,1,376,32.58a186.19,186.19,0,0,1,2.71,19.7c.39,4.78.44,9.58,1.13,14.33.64,4.42,2.33,8.43,3.41,12.73a54.6,54.6,0,0,1,1.37,9.36c.45,6,.42,12.11.42,18.17V132.5a1.52,1.52,0,0,0,2.8.76,32.45,32.45,0,0,1,4.76-5.82,73,73,0,0,1,16.7-12.64l-1.82-.24c1.79,1.7,4.31,1.24,6,2.91a10.62,10.62,0,0,1,1.73,2.32c.87,1.51,1.29,3.35,2.25,4.77.28.41,0-.08.31.4a6.75,6.75,0,0,1,.83,1.93c.69,2.75-.52,5.36-1.86,7.7q-2.34,4.09-4.74,8.16l-1.26,2.14a4.06,4.06,0,0,0-.38.63c-.25.57-.12-.46.4-.31-.14-.05-.71.36-.83.42L375.8,163.05l-12.06,6.15,2.26,1.3-.9-19.43-2-43.2-2-44.23-.72-15.51-.22-4.85a23.8,23.8,0,0,0-.12-2.53c-.09-.57.14.08-.2.47a7.42,7.42,0,0,0,.78-1.6l4-8.23,8.69-18,.55-1.12c.83-1.73-1.76-3.26-2.6-1.52L364.31,25l-4.71,9.76c-.79,1.63-1.72,3.26-2.39,4.94a4.3,4.3,0,0,0-.16,1.92l.17,3.64.64,13.83,2,42.77,2.07,44.69c.36,7.86.59,15.74,1.08,23.6,0,.11,0,.22,0,.33a1.52,1.52,0,0,0,2.26,1.3l31.05-15.86,14.91-7.62a8.68,8.68,0,0,0,1-.51,7.57,7.57,0,0,0,1.74-2.53c1.48-2.51,2.95-5,4.4-7.55,1.65-2.85,3.37-5.7,3.41-9.09a9.27,9.27,0,0,0-1.72-5.58c-.11-.16-.35-.39-.46-.58s.27.4.18.16c-.21-.54-.43-1.09-.66-1.63a20.56,20.56,0,0,0-2.33-4.24,9.38,9.38,0,0,0-4.58-3.47c-.55-.19-1.12-.29-1.68-.44-.13,0-.87-.27-.52-.14a1.73,1.73,0,0,1-.3-.16c-.2-.13.15.17-.15-.12a1.54,1.54,0,0,0-1.82-.24,76,76,0,0,0-17.3,13.11,38.46,38.46,0,0,0-5.24,6.43l2.8.76V111.41c0-10.22.54-20.8-1.46-30.89-.84-4.25-2.65-8.22-3.47-12.47A80.53,80.53,0,0,1,382,56.55a177.76,177.76,0,0,0-2.29-20.18A202.46,202.46,0,0,0,374,11.1C373.39,9.26,370.49,10,371.05,11.9Z"/><polygon class="cls-6" points="354.97 262.32 377.5 253.5 375.92 210.44 366.5 191.5 349.5 200.5 354.97 262.32"/><path d="M355.37,263.76l19.68-7.7L377.9,255a1.56,1.56,0,0,0,1.1-1.45l-1-27-.52-14.29a7.42,7.42,0,0,0-.3-2.62c-.67-1.64-1.6-3.21-2.38-4.79l-7-14.1a1.55,1.55,0,0,0-2.06-.54l-17,9a1.48,1.48,0,0,0-.74,1.3l1.86,21,2.93,33.17.68,7.65c.17,1.9,3.17,1.92,3,0l-1.86-21-2.93-33.17L351,200.5l-.74,1.3,17-9-2.06-.54,6,12,3.13,6.29a3.51,3.51,0,0,0,.27.55c.27.35-.07-1-.16-.61a4,4,0,0,0,0,1l1.15,31.26L376,253.5l1.1-1.45-19.68,7.7-2.85,1.12C352.79,261.57,353.57,264.47,355.37,263.76Z"/><polygon class="cls-6" points="386.05 170.5 430.5 226.5 413.08 241.38 370.5 178.5 386.05 170.5"/><path d="M385,171.56l15.12,19L424,220.67l5.47,6.89v-2.12l-15.24,13L412,240.32l2.36.31L400,219.36,377,185.49l-5.24-7.75-.54,2.06,15.54-8c1.72-.89.2-3.48-1.51-2.6l-15.55,8a1.53,1.53,0,0,0-.54,2.06l14.4,21.26,22.94,33.88,5.24,7.74a1.54,1.54,0,0,0,2.36.31l15.24-13,2.18-1.86a1.53,1.53,0,0,0,0-2.12l-15.11-19-23.88-30.07-5.46-6.89C385.91,167.93,383.8,170.06,385,171.56Z"/><path class="cls-6" d="M346.5,11.5s-12,18-13,31a209.45,209.45,0,0,1,25-2l14-29Z"/><path d="M345.2,10.74a96.11,96.11,0,0,0-11.14,22.33A40.13,40.13,0,0,0,332,42.5a1.5,1.5,0,0,0,1.5,1.5,193.81,193.81,0,0,1,25-2,1.5,1.5,0,0,0,1.3-.74L372,15.9l1.76-3.64A1.52,1.52,0,0,0,372.5,10h-26a1.5,1.5,0,0,0,0,3h26l-1.3-2.26L359,36.1l-1.76,3.64,1.3-.74a193.81,193.81,0,0,0-25,2l1.5,1.5c.58-7,3.66-13.75,6.81-19.9a106.39,106.39,0,0,1,6-10.34C348.87,10.65,346.27,9.14,345.2,10.74Z"/><path class="cls-7" d="M372.5,174.5l46,60s5,2-17,16c-24-45-39-51-39-50s1,54-4,60-8,2-23,2c11-155,0-221,0-221h23a546.62,546.62,0,0,0,8,95c2,16-2,35-2,35l34-36,13,12-35,33"/><path d="M371.2,175.26l7.71,10.05L395.57,207l15.92,20.77,4.66,6.07,1,1.27.06.09v0l.24.3s.85.68.48.31c-.17-.18-.2-.07-.06,0-.3-.14-.35-.28-.18-.13s-.3-.4-.11-.12c.09.13-.17-.46-.06-.13s-.06-.46,0-.06.14-.34,0,0c0,.09-.19.57-.09.31s-.13.25-.19.35a7.91,7.91,0,0,1-.44.68l-.09.12c-.1.12-.19.25-.29.36-.25.29-.51.57-.77.85-.69.71-1.42,1.38-2.16,2a81.45,81.45,0,0,1-7.29,5.51q-2.69,1.83-5.43,3.57l2.06.54c-7.66-14.32-16.11-28.73-27.1-40.8a56.39,56.39,0,0,0-8.29-7.68A11.4,11.4,0,0,0,363.2,199c-2.58-.52-2.19,2.42-2.17,4q.08,6.48,0,12.94c-.07,11.72-.13,23.58-1.62,35.22a44.59,44.59,0,0,1-1.07,5.83c-.1.36-.2.72-.32,1.07l-.18.5c-.14.38.08-.13-.1.23a5.71,5.71,0,0,1-.35.64c-.24.41.11-.11-.07.1s-.49.57-.75.84a6,6,0,0,1-5,1.93c-3-.09-6.06-.72-9.09-1-2.34-.21-4.68-.3-7-.31l1.5,1.5c1.91-27,3.37-54.05,4.18-81.11.62-20.43.87-40.88.6-61.32-.18-14.36-.62-28.71-1.47-43-.51-8.62-1.15-17.23-2.08-25.81q-.36-3.41-.81-6.79a19.25,19.25,0,0,0-.46-3.21.37.37,0,0,1,0-.11L335.5,43h23L357,41.5c-.24,10.5.22,21,.81,31.51q1,16.84,2.9,33.6,1.13,9.83,2.61,19.6c.52,3.41,1.09,6.8,1.65,10.2a58.48,58.48,0,0,1,.58,8.87,120.45,120.45,0,0,1-2.5,25.82,1.51,1.51,0,0,0,2.51,1.46L377,160.44,395.35,141l4.21-4.45h-2.12l13,12v-2.12l-11.87,11.19-18.8,17.73-4.33,4.08c-1.41,1.33.72,3.45,2.12,2.12l11.87-11.19,18.8-17.73,4.33-4.08a1.52,1.52,0,0,0,0-2.12l-13-12a1.52,1.52,0,0,0-2.12,0L386,146.56,367.65,166l-4.21,4.45L366,171.9a129.08,129.08,0,0,0,2.53-21.64,90.68,90.68,0,0,0-1.24-18.32q-1.65-10.05-2.91-20.15A556.13,556.13,0,0,1,360,52.28c-.06-3.59-.11-7.19,0-10.78a1.52,1.52,0,0,0-1.5-1.5h-23a1.53,1.53,0,0,0-1.45,1.9c.11.63.2,1.27.29,1.9l.06.5a2.54,2.54,0,0,1,0,.29s-.05-.44,0,0l.18,1.36c.14,1.12.27,2.25.4,3.38.9,7.94,1.54,15.91,2.05,23.89.88,13.65,1.37,27.33,1.62,41,.36,19.72.21,39.45-.28,59.16-.66,26.13-1.94,52.25-3.67,78.33-.24,3.61-.48,7.22-.74,10.82a1.51,1.51,0,0,0,1.5,1.5,97.77,97.77,0,0,1,12.21.9c2.3.3,4.74.72,7,.08,3.87-1.08,5.93-4.46,6.77-8.12a91.32,91.32,0,0,0,1.77-14.57c.41-6.12.6-12.26.71-18.39q.13-8,.09-16c0-1.72,0-3.44,0-5.16a7.43,7.43,0,0,0,0-2.26c.2.41-.49,1.11-.86,1.27-.05,0-.69.14-.42.11-.48,0-.23,0,.14.08s-.25-.13,0,0l.47.24c.36.18.71.39,1.06.61s.93.61,1.39.94c.63.47.65.49,1.35,1.06a53.06,53.06,0,0,1,4.05,3.74c10.2,10.28,18,23,25.07,35.53,1.33,2.37,2.64,4.75,3.91,7.15a1.53,1.53,0,0,0,2.06.54c3.59-2.3,7.14-4.67,10.51-7.27a40.3,40.3,0,0,0,5.4-4.79c1.24-1.37,3.1-3.66,2-5.63a2.49,2.49,0,0,0-1.27-1.06l.9.69-15.53-20.25-24.76-32.3-5.71-7.45c-1.16-1.51-3.77,0-2.6,1.52Z"/><line class="cls-7" x1="408.5" y1="113.5" x2="398.5" y2="135.5"/><path d="M407.2,112.74,398.46,132l-1.26,2.75c-.79,1.75,1.8,3.27,2.6,1.52L408.54,117l1.26-2.75c.79-1.75-1.8-3.27-2.6-1.52Z"/><path class="cls-8" d="M485.32,60.78S480.5,86.5,480.5,121.5c24,0,51,0,58,3s5,7,5,11v12l-20,13H485.32l-.82,58s73,2,75,6,4,5,4,30l-16.72,8.82L453.5,245.5s2-186,5-188,25,3.71,25,3.71"/><path d="M483.87,60.38a306.4,306.4,0,0,0-4.26,39.39Q479,110.63,479,121.5a1.52,1.52,0,0,0,1.5,1.5c15,0,30.14-.24,45.13.88,2.53.19,5.06.42,7.57.83a19.18,19.18,0,0,1,5.16,1.36c2.42,1.15,4,2.67,3.9,5.43,0,1.59-.26,3.16-.26,4.75V147.5l.74-1.3-10.21,6.64-6.82,4.43-2.24,1.46a3.48,3.48,0,0,0-.55.36c-.39.38.34-.21.56-.09a2.6,2.6,0,0,0-.88,0H485.32a1.52,1.52,0,0,0-1.5,1.5l-.28,19.56-.44,31.22-.1,7.22a1.52,1.52,0,0,0,1.5,1.5q6.12.17,12.25.4c8.88.33,17.77.72,26.65,1.22,8.65.48,17.32,1,25.93,2a51.94,51.94,0,0,1,7.66,1.29c.37.1.74.22,1.11.35-.11,0-.24,0,.1.06s.29.38,0,0c.19.29,0-.1,0-.1l.27.53c.19.36.39.71.57,1.06s.37.71.54,1.07c0,.1.09.19.13.29.14.31-.08-.22,0,0l.27.71a22.8,22.8,0,0,1,.92,3.66,101,101,0,0,1,1,15.56c0,2.12,0,4.24,0,6.36l.74-1.3L546,262l1.16-.15-9.24-1.76-22.3-4.26-26.89-5.14-23.36-4.46-7.67-1.47a24.09,24.09,0,0,0-3.66-.69l-.16,0,1.1,1.45c0-2.06.05-4.12.07-6.17q.09-8.27.2-16.51.17-12,.34-24,.21-14.37.45-28.73.26-15.25.56-30.5.3-14.64.67-29.26.31-12.65.76-25.29c.22-6.17.46-12.35.85-18.51.12-1.93.25-3.85.46-5.77,0-.34.07-.67.11-1s-.05.33,0-.07l.06-.41c.06-.37.18-.73.24-1.1a.87.87,0,0,1-.24.39c-.07.06-.29.37-.18.15,0,0-.26.08,0,0a2.3,2.3,0,0,1,.72-.13,28.88,28.88,0,0,1,6,.45c4.8.72,9.55,1.78,14.27,2.92l2.74.68c1.87.49,2.67-2.41.8-2.89-3.19-.82-6.39-1.56-9.61-2.24-2.62-.55-5.24-1.05-7.89-1.44a30.45,30.45,0,0,0-6.32-.48c-1.82.13-3.05.69-3.4,2.49a40.65,40.65,0,0,0-.52,4.28c-.45,5.25-.67,10.53-.89,15.79-.33,7.9-.57,15.81-.8,23.71q-.4,14.34-.7,28.69-.33,15.36-.6,30.71-.27,15-.49,29.9-.2,12.92-.37,25.84l-.24,19c0,3-.13,6.09-.11,9.12,0,.14,0,.27,0,.4a1.52,1.52,0,0,0,1.1,1.45l13,2.49,29.43,5.62,31.28,6,18.6,3.56c.31.05.62.14.93.17,1.36.16,3-1.1,4.11-1.7l12.82-6.76,1-.5a1.51,1.51,0,0,0,.74-1.3,168.62,168.62,0,0,0-.77-19.72,27.43,27.43,0,0,0-2-8.28c-.62-1.35-1.27-3.1-2.64-3.82-1.91-1-4.33-1.23-6.43-1.54-8.26-1.22-16.64-1.73-25-2.24-9.33-.57-18.67-1-28-1.37l-10.35-.37a45.48,45.48,0,0,0-5.09-.15h-.23l1.5,1.5.28-19.56.43-31.22.11-7.22-1.5,1.5h35.92a21.3,21.3,0,0,0,2.26,0c1-.11,2.08-1.06,2.93-1.62l12.46-8.09,4.64-3c.24-.16.5-.3.73-.47.81-.64.74-1.36.74-2.26,0-4.15-.26-8.37.07-12.51.22-2.85.42-5.57-1.54-7.9-1.84-2.18-4.73-3.32-7.45-3.92-6.57-1.45-13.51-1.6-20.21-1.83-9.4-.34-18.82-.37-28.24-.38H480.5l1.5,1.5a367,367,0,0,1,4.17-56.78c.19-1.18.37-2.36.59-3.54.36-1.89-2.53-2.7-2.89-.8Z"/><path class="cls-8" d="M439.49,26.61S435.58,8,456.11,7.06,509.88,10,509.88,10A87.47,87.47,0,0,0,530.4,7.06c10.76-2.93,17.6-1,17.6,6.84V39.32L528.62,57"/><path d="M440.94,26.21c0-.14-.05-.28-.07-.42-.09-.48,0,.17,0-.14s0-.49-.07-.73a21.17,21.17,0,0,1,0-3.9,13.41,13.41,0,0,1,4.72-9.13c4.58-3.59,10.86-3.44,16.38-3.48,7-.06,14,.25,21,.69q9.14.59,18.24,1.47c2.88.28,5.79.74,8.68.91a30.18,30.18,0,0,0,3.56-.13,94.4,94.4,0,0,0,11.12-1.41c4.08-.76,8.07-2.21,12.21-2.58,2.48-.22,5.41-.24,7.54,1.27,1.88,1.33,2.26,3.55,2.26,5.71v25l.44-1.06L530,53.68l-2.43,2.21c-1.43,1.3.69,3.42,2.12,2.12l9.51-8.65,6.63-6a37.43,37.43,0,0,0,3.23-2.93c.68-.79.45-2,.45-3V19.85a66.73,66.73,0,0,0-.08-7.35A8.58,8.58,0,0,0,544,5.13c-3.75-1.49-8.17-.87-12,0-3,.67-5.93,1.51-9,2.05-2.46.44-4.94.77-7.42,1a38.24,38.24,0,0,1-5.85.31c-1.52-.1-3-.34-4.56-.5-7.36-.76-14.74-1.4-22.13-1.87a237.82,237.82,0,0,0-27-.55c-6.63.34-13.5,2.76-16.57,9.09a20.15,20.15,0,0,0-1.6,11.69c0,.22.06.45.11.67.39,1.89,3.28,1.09,2.89-.8Z"/><path class="cls-9" d="M455.5,265.5s-13,5-13-15,2-33,3-118c1-37-8-60-7-105,0-3,15-11,57-4s36,11,36,11,2,19,0,23c0,0-11,0-42,3-18,1-24,1-24,4v77l58-2-1,21h-56v76l76,1s6-1,5,24C547.5,261.5,556.5,268.5,455.5,265.5Z"/><path d="M455.1,264.05a4.68,4.68,0,0,1-.53.17c-.19.06-.39.1-.59.15s-1,.15-.51.1a7.35,7.35,0,0,1-4-.39,5.72,5.72,0,0,1-.93-.47,4.7,4.7,0,0,1-1-.75,8.72,8.72,0,0,1-1.82-2.53c-1.53-3.06-1.73-6.72-1.73-10.06,0-5.45.18-10.89.39-16.32.3-7.6.64-15.2.91-22.81q.7-19.44,1.07-38.91.3-14.22.49-28.45c.13-9.6.41-19.19-.1-28.78-.87-16.31-3.56-32.45-5.19-48.69-.94-9.45-1.52-19-1.63-28.45,0-2.65,0-5.29,0-7.94,0-.64,0-1.29,0-1.93,0-.25-.06-.76,0-.43s0,.17,0,0c0-.3-.16.3-.06.12a3.13,3.13,0,0,1,.22-.36c-.31.42,0,0,.17-.15l.42-.38c.14-.11-.28.2,0,0l.35-.25a15.79,15.79,0,0,1,1.56-.86l.43-.2.27-.12c.38-.15.76-.3,1.14-.43a40.22,40.22,0,0,1,5.7-1.51,87.22,87.22,0,0,1,18.4-1.21,198.89,198.89,0,0,1,28.89,3.11,238.7,238.7,0,0,1,23.39,4.92,60.74,60.74,0,0,1,5.91,1.91,15.38,15.38,0,0,1,1.64.72c.44.22.86.46,1.28.72.18.12.52.43.15.1.12.1.23.21.35.3.45.37-.18-.23.17.25,0,0-.17-.45-.07-.13,0,.12-.05-.51,0-.18a.69.69,0,0,1,.11-.45c.06-.09.06-.12.33-.31a1.5,1.5,0,0,0-.74,1.3c.34,3.23.58,6.48.74,9.73.12,2.51.2,5,.12,7.56a28.43,28.43,0,0,1-.22,3.06,11.2,11.2,0,0,1-.21,1.13c0,.18-.09.35-.14.52-.11.38,0,.07-.09.24l1.3-.74c-8.13,0-16.31.77-24.4,1.43q-7.71.62-15.4,1.36c-5,.47-10,.6-15,.93a53.56,53.56,0,0,0-8.48,1c-1.49.34-3.16.93-3.88,2.39a5.74,5.74,0,0,0-.33,2.6v52.86c0,7.53-.2,15.09,0,22.62v.36a1.52,1.52,0,0,0,1.5,1.5l19.56-.67,31.22-1.08,7.22-.25-1.5-1.5-1,21,1.5-1.5h-56a1.52,1.52,0,0,0-1.5,1.5v76a1.52,1.52,0,0,0,1.5,1.5l12.58.17,27.29.35,26.29.35,7.86.1c.58,0,1.16,0,1.74,0h.24c1,0-.34,0,.16,0,.17,0-.23,0-.2,0s.22.07.24.07c.19,0-.08,0-.19-.09s.13,0,.14.07.29.18.34.22c-.46-.29,0,0,.08.1s.49.59.24.23a10.2,10.2,0,0,1,.77,1.31,20.19,20.19,0,0,1,1.31,4.7,56.13,56.13,0,0,1,.71,8.79c0,2.14,0,4.28-.07,6.41a2.84,2.84,0,0,0,.42,1.79l.07.07c-.29-.37-.42-.53-.27-1-.09.28.13-.25.1-.21-.16.25,0,0,.13-.13a1.37,1.37,0,0,0-.17.17c-.22.23.42-.2.05,0s-.49.26-.73.38c.55-.27,0,0-.21.07l-.63.2a32.31,32.31,0,0,1-3.88.84l-1.33.2-.35,0s.25,0-.06,0l-.86.11c-1.22.15-2.43.27-3.65.38-7.81.7-15.67.9-23.51,1-14,.22-28,0-41.94-.3q-6.85-.15-13.71-.36c-1.93-.06-1.93,2.94,0,3,16,.47,32,.81,48,.74,9.21-.05,18.45-.19,27.65-.83a84.37,84.37,0,0,0,13.15-1.62c1.5-.35,3.65-.81,4.54-2.23a2.07,2.07,0,0,0-.28-2.61h0l.44,1.06c.24-6.32.42-13.06-1.26-19.22-.58-2.11-1.52-4.72-3.57-5.85a3.58,3.58,0,0,0-1.6-.44c-.44,0-.62,0-.1,0h-.39c-1.92-.07-3.84-.05-5.75-.07l-25-.33-28.75-.38L472,235.07a45.67,45.67,0,0,0-5.23-.07h-.24l1.5,1.5v-76l-1.5,1.5h56a1.53,1.53,0,0,0,1.5-1.5l1-21a1.51,1.51,0,0,0-1.5-1.5l-19.56.67-31.22,1.08-7.22.25,1.5,1.5V87.9q0-11.46,0-22.93c0-.12,0-.23,0-.34v-.12c0-.39.09.22,0,0s0-.08,0,0,.2-.53,0,0a.72.72,0,0,1,.23-.23l.15-.08c.06,0,.47-.23.3-.16a3.93,3.93,0,0,0,.4-.14c.42-.13.85-.23,1.28-.32a31.1,31.1,0,0,1,3.45-.48c4-.38,8.08-.55,12.11-.77,5.49-.29,10.94-.86,16.41-1.34,10-.86,19.91-1.52,29.9-1.91h.31a1.51,1.51,0,0,0,1.3-.74,14.74,14.74,0,0,0,1-5.62c.14-2.62.06-5.25-.06-7.87-.15-3.42-.4-6.86-.76-10.27l-.74,1.3a2.27,2.27,0,0,0,1-2.5c-.46-1.69-2.47-2.65-3.92-3.31a74.2,74.2,0,0,0-13.87-4.19c-9.71-2.22-19.58-4-29.46-5.2a148.7,148.7,0,0,0-25.74-1.27,61.16,61.16,0,0,0-15.51,2.4c-2.36.75-5.2,1.76-6.85,3.73-1.36,1.63-.9,3.93-.92,5.9q-.09,8.07.26,16.13c.76,17.57,3.46,34.91,5.32,52.38a258.48,258.48,0,0,1,1.56,25.94c0,10.51-.25,21-.43,31.53-.26,15.34-.59,30.68-1.08,46-.29,8.87-.65,17.74-1,26.6-.24,5.81-.47,11.62-.53,17.43-.06,5.28-.21,11.28,2.91,15.82a10,10,0,0,0,10,4.2,9.17,9.17,0,0,0,1.93-.45C457.69,266.27,456.91,263.36,455.1,264.05Z"/><line class="cls-9" x1="530" y1="32.03" x2="549.5" y2="8.5"/><path d="M531.06,33.09l17.07-20.6,2.43-2.93c1.22-1.48-.89-3.61-2.12-2.12L531.37,28,528.94,31c-1.22,1.48.89,3.61,2.12,2.12Z"/><line class="cls-9" x1="524" y1="140.03" x2="537.5" y2="124.5"/><path d="M525.06,141.09l11.81-13.59,1.69-1.94c1.26-1.45-.85-3.58-2.12-2.12L524.63,137,522.94,139c-1.26,1.45.85,3.58,2.12,2.12Z"/><line class="cls-9" x1="545.4" y1="240.44" x2="560.5" y2="226.5"/><path d="M546.46,241.5l13.24-12.22,1.86-1.72c1.42-1.31-.7-3.43-2.12-2.12L546.2,237.66l-1.86,1.72c-1.43,1.31.7,3.43,2.12,2.12Z"/><path class="cls-1" d="M68.5,206.5c-6,7-12,25-12,25-5-5-23,0-23,0,5-15,18-25,18-25S62.5,204.5,68.5,206.5Z"/><path d="M67.44,205.44c-3.8,4.5-6.25,10.12-8.52,15.5-1.4,3.34-2.72,6.73-3.87,10.16l2.51-.66c-3.53-3.39-9.71-2.87-14.16-2.35a69.3,69.3,0,0,0-10.3,2L35,231.9a53.51,53.51,0,0,1,12.89-20c1.4-1.42,2.89-2.7,4.38-4,.09-.07.26-.15.32-.25-.34.53-.95.37-.21.29,1.13-.11,2.24-.32,3.37-.44,4-.42,8.47-.74,12.4.52,1.84.59,2.63-2.31.8-2.9-3.83-1.22-8.1-1.07-12.06-.73-1.55.14-3.1.32-4.64.56a3.36,3.36,0,0,0-1.8.59c-4.21,3.09-7.83,7.41-10.91,11.57a52.11,52.11,0,0,0-7.44,14.06A1.52,1.52,0,0,0,33.9,233a64.74,64.74,0,0,1,9-1.79,37.88,37.88,0,0,1,7.37-.32c1.77.13,3.88.44,5.22,1.72A1.52,1.52,0,0,0,58,231.9c1.08-3.24,2.32-6.44,3.63-9.59,2.1-5.06,4.41-10.53,8-14.75C70.8,206.09,68.69,204,67.44,205.44Z"/></svg>